<?xml version="1.0" encoding="UTF-8"?>
<svg id="Layer_2" data-name="Layer 2" xmlns="http://www.w3.org/2000/svg" viewBox="0 0 913.66 640.79">
  <g id="Layer_1-2" data-name="Layer 1">
    <g>
      <g>
        <path d="m551.03,423.03c-8.98,31.01-11.72,13.81-19.34-4.62-16.11-1.3-6.97,21.84-3.22,30.13,6.91,29.43-12.64,72.53,5.33,96.76,43.65,4.79,14.29-52.34,21.48-76.45,15.03-28.4,38.53,19.36,42.15,34.44,1.4,12.9,1.71,59.69,21.38,31.11,1.66-21.37-12.79-40.65-20.74-59.64-5.22-18.26-23.89-79.85-47.7-49.61"/>
        <path d="m691.04,466.58c-5.87-7.38-30.03-21.13-31.25-3,4.6,21.13,3.63,42.51,4.88,64.37.39,6.82-.94,11.36,6.86,14.99,2.62,1.22,7.52.93,10.4,1.12,9.16.6,11.22-7.17,20.39-6.66,19.99,5.81,2.56,29.31-12.81,26.84-15.29.46-40.73-6.43-45.56-21.33-1.02-11.76,5.91-23.29,2.3-34.53-5.46-23.8-39.67-45.14-25.34-71.09,23.68-16.22,45.48,4.74,68.03,8.71,14.43.61,20.67,28.91,2.09,20.57"/>
        <path d="m733.31,470.05c-6.08-2.53-13.84-.93-17.48,1.87-12.97,9.99,6.95,52.23,6.87,59.8-.01.99.39,1.92,1.13,2.57,11.35,10.18,30.77,13.78,45.76,16.76.45.09.92.1,1.37-.02,5.26-1.46,7.67-7.93,11.94-11.52,1.38-1.16,3.43-.98,4.65.34,10.02,10.86.95,22.17-6.49,32.46-.36.49-.56,1.06-.61,1.67-1.51,20.16-9.09,52.62-30.96,23.52l-.19-.27c-4.24-6.46-8.28-18.3-16.33-19.46-1.88-.27-3.65,1.11-3.8,3-1.17,15.23,22.52,30.6,20.05,52.14-.07.58-.02,1.18.24,1.71,6.88,14.44,38.24.3,46.12-9.17l.35-.51c12.95-23.07.52-51.97,10.07-76.86.15-.4.23-.82.21-1.25-1.03-22.65-12.04-62.95-30.92-73.36-1.34-.74-3-.42-4.06.68-10.93,11.48,3.25,36.13-7.98,43.67-.96.65-2.58.66-3.59.08-7.7-4.39-21.43-6.65-25.07-16.91-4.41-12.41,6.27-25.67.35-30.13-.4-.3-.81-.47-1.62-.81Z"/>
        <path d="m438.2,463.52c1.3-4.68,6.24-7.95,10.6-4.99,92.39,32.54,48.73-92.34-23.13-43.55-23.79,13.53-4.48,98.12,11.81,114.75,13.32,5.89,83.3,9.73,57.95-18.37-20.79-11.85-70.79,31.62-57.23-47.84Zm16.79-37.35l9.2,2.76c14.74,11.24-7.14,25.73-18.41,15.65-4.06-4.86,2.71-20.36,9.2-18.41Z"/>
        <path d="m400.88,503.71c-11.93-18.97,9.17-86.17-16.77-77.12-4.4,13.49-17.43,8.42-25.13,1.11-74.03-51.67-103.88,69.83-35.11,96.31,20.67,1.25,35.69-25.79,56.36-26.47l.96.37c3.14,47.82-35.74,58.81-69.61,54.16-21.83,7.78,4.7,37.57,19.78,26.62,32.8-10.28,83.11-23.75,69.52-74.97Zm-54.84-23.51c-15.17,6.99-23.63-23.16-7.78-27.62,9.7-1.19,19.1,22.41,7.78,27.62Z"/>
        <path d="m261.9,485.76c-9.02-28.54-32.38-35.08-59.25-29.53l-.1.08c-76.16-18.61-20.98,74.75-8.87,113.16,1.19,3.76,4.04,6.77,7.76,8.06,20.79,7.21,55.25,13.68,52.6-16.67,1.3-12.57,15.96-6.02,14.88,4.02-1.28,10.56,7.92,14.5,17.51,12.28,14.43-27.7-13.12-64.28-24.52-91.4Zm-23.1,52.49c-2.02.47-5.87,1.06-10.31-.24-8.12-2.38-11.86-9.22-12.61-10.65-1.49-2.44-1.24-5.47.5-7.37,2.02-2.19,5.04-1.8,5.31-1.76,7.95-1.93,15.58,1.66,18.18,7.68,2.48,5.76-.61,11.53-1.06,12.35Z"/>
      </g>
      <path d="m17.75,334.75c-45.34,31.42,8.74-133.66,23.5-147.32,10.92-19.07,24.08-37.2,41.21-50.96,31.34-30.63,75.27,1.79,110.61-19.79,23.89-10.69,43.36-34.08,70.05-35.64,24,19.48-17.8,36.38-33.38,42.68-17.64,15.44-35.63,32.57-53.06,47.83-4.13,24.64-8.06,49.72-14.98,74.2-15.81,61.56,11.4,154.74-30,203.48-8.02,6.42-24.12,4.22-23.49-8.01,2.09-7.43,9.03-13.57,6.06-22.14-9.32-45.98,2.79-92.11-3.12-137.87,2.55-11.53,11.58-20.31,17.93-30.27,14.33-12.33,16.89-91.68-11.57-66.14-39.18,86.67-.49,92.25-99.77,149.94"/>
      <path d="m288,18.93c-9.79,5.81-8.36,20.19-5.64,31.26,2.84,38.18,33.36,60.97,49.06,91.6-4.56,34.37,29.1,55.05,18.49,89.5-6.7,22.88-9.1,45.59-3.16,68.83,5.66,26.47-15.75,77.99,20.26,85.74,36.09,5.49,72,11.4,107.1-.34,20.02,7.77,47.33-1.39,49.29-25-8.64-35.08-49.33-7.01-72.23-10.23-129.96-31.87-34.41-105.19-56.9-189.29-12.03-30.8-48.64-47.2-59.06-78.59-4.07-28.55-15.64-61.24-49.15-63.94"/>
      <path d="m435.94,315.95c-2.31-28.06,9.71-46.16,28.55-15.94,9.62,13.15,75.18,42.58,50.21,4.84-33.67,5.31-33.09-37.83-45.14-60.26-33.86-72.2,71.36-141.92,30.93-213.71-26.89-18.46-27.36,27.31-26.63,44.75-7.17,38.73-32.36,74.94-23.42,116.3-6.85-54.76.22-120.02-37.32-164.71-13.24-12.56-57.73-6.78-45.37,18.01,37.57,43.59,36.52,99.24,43,152.73,6.51,33.39,7.27,67.66,5.83,101.65-2.58,12.18,10.37,15.27,19.36,16.35"/>
      <path d="m697.8,342.07c18.69,23.4,20.4,50.6,16.66,83.63,47.24,19.64,17.68-59.13,26.63-82.55,12.21-48.97-6.55-122.24,41.55-153.06,67.13-17.99,58.56,61.24,88.33,89.46,46.92,9.43,54.87-41.45,25.3-68.55-19.01-21.31-47.58-40.8-37.16-72.99-7.99-39.94-71.3-35.88-98-18.17-20.44,6.12-15.45,56.94-33.26,50.26-9.51-19.35,6.76-43.8-1.77-63.6-15.49-25.29-55.33-68.17-77.14-26.88-3.27,12.38,8.81,22.74,17.56,32.08,53.66,64.67-15.51,159.64,31.29,230.36"/>
      <path d="m322.12,242.51c-1.43-9.76,8.72-32.68-6.79-32.36-18.06-13.67-23.7-42.58-42.6-57.82-9.93-13.51-28.14-13.55-42.38-7.59-28.97,18.28-13.17,62.69-37.33,86.06-6.34,13.47-1.47,29.2,1.84,43.71,18.37,31.26-17.15,156.3,33.11,143.58,28.67-7.64,53.51-28.52,65.95-55.44,21.9-55.29,23.83-5.7,9.22,20.68-4,12.06,16.93,8.12,24.02,9.44,4.93-47.85-4.04-100.42-5.04-150.28Zm-51.52,13.48c.02-3.7,4.12-13.38,9.26-12.35,4.23.85,10.23,4.55,12.35,9.26,4.51,4.24,6.07,10.03,4.12,14.4-1.84,4.12-6.13,5.46-7.02,5.73-8.7,2.72-25.38-4.45-18.7-17.05Z"/>
      <path d="m855.42,309.64c-3.54-35.69-63.46-103.38-77.59-39.36-8.54,37.03,14.24,75.33-3.42,111.13-52.15,94.64,87.66,104.68,132.53,53.81,27.3-79.5-40.85-69.57-51.52-125.58Zm-39.5,87.31c.66-6.24,13.42-25.22,21.61-22.64,3.38-1.06,7-.28,9.26,2.06,2.98,3.09,3.18,8.47,0,12.35.31,1.93-24.69,32.92-30.87,8.23Z"/>
      <path d="m667.61,311.91c-19.98-16.27-45.17-13.39-63.58-37.08-5.95-17.68,12.65-18.29,12.85-3.36-.16,19.57,31.87-9.43,35.19-12.5,11.29-15.97,13.32-38.45,15.49-57.54,4.81-33.31-24.85-49.46-41.9-71.82-12.39-41.67,3.73-157.74-72.31-123.31-14.92,20.92-6.24,50.6-15.57,73.84-44.79,63.12-15.67,135.98,5.75,202.7,16.14,26.21-11.54,39.38-19.52,59.37.45,27.32,21.25,40.2,45.53,41.93l.32.26c47.25,34.02,148.48-20.26,97.75-72.49Zm-94.51-139.27c15.43-16.46,35.14,14.95,27.78,24.69-10.78,14.31-48.36-8.23-27.78-24.69Zm16.46,180.06c-19.55-14.4,6.7-38.15,16.46-29.84,13.65,11.62,10.29,37.04-16.46,29.84Z"/>
    </g>
  </g>
</svg>